<svg height="277pt" viewBox="0 0 277.49702 277" width="277pt" xmlns="http://www.w3.org/2000/svg"><path d="m138.753906.25c-33.835937-.023438-66.511718 12.335938-91.859375 34.746094-2.070312 1.828125-2.265625 4.988281-.433593 7.058594 1.828124 2.070312 4.988281 2.261718 7.054687.433593 51.613281-45.535156 129.914063-42.4023435 177.722656 7.109375 47.808594 49.507813 48.203125 127.871094.894531 177.859375-47.3125 49.988281-125.578124 53.90625-177.644531 8.894531-52.0625-45.015624-59.496093-123.027343-16.871093-177.0625 1.710937-2.167968 1.339843-5.3125-.828126-7.023437-2.167968-1.710937-5.3125-1.339844-7.023437.828125-19.386719 24.421875-29.882813 54.71875-29.765625 85.902344 0 76.628906 62.121094 138.746094 138.746094 138.75 76.628906 0 138.75-62.117188 138.75-138.746094.003906-76.628906-62.113282-138.75-138.742188-138.75zm0 0"/><path d="m220.511719 207.070312c2.203125 1.664063 5.339843 1.230469 7.007812-.96875 35.617188-47.085937 28.28125-113.785156-16.710937-152.003906-44.996094-38.222656-112.003906-34.671875-152.707032 8.089844-40.703124 42.761719-40.949218 109.859375-.558593 152.917969 40.390625 43.058593 107.371093 47.097656 152.640625 9.207031 1.414062-1.132812 2.105468-2.941406 1.804687-4.730469-.300781-1.785156-1.542969-3.269531-3.25-3.878906s-3.609375-.246094-4.972656.945313c-36.402344 30.480468-89.089844 31.582031-126.734375 2.652343-37.644531-28.929687-50.136719-80.128906-30.050781-123.144531 20.082031-43.019531 67.359375-66.3125 113.707031-56.027344 46.347656 10.289063 79.332031 51.390625 79.332031 98.867188.074219 22.050781-7.121093 43.515625-20.464843 61.070312-1.667969 2.199219-1.238282 5.332032.957031 7.003906zm0 0"/><path d="m137.328125 204.195312c2.761719 0 5-2.238281 5-5v-9.75h8.921875c15.261719-.019531 27.632812-12.386718 27.65625-27.648437v-2.039063c-.015625-9.679687-5.085938-18.644531-13.378906-23.636718 9.246094-7.289063 12.855468-19.636719 8.996094-30.757813-3.859376-11.121093-14.34375-18.574219-26.117188-18.566406h-6.078125v-8c0-2.761719-2.238281-5-5-5s-5 2.238281-5 5v8h-11.25v-8c0-2.761719-2.238281-5-5-5s-5 2.238281-5 5v8h-7.476563c-2.761718 0-5 2.238281-5 5s2.238282 5 5 5h7.476563v82.648437h-7.476563c-2.761718 0-5 2.238282-5 5 0 2.761719 2.238282 5 5 5h7.476563v9.738282c0 2.761718 2.238281 5 5 5s5-2.238282 5-5v-9.738282h11.25v9.738282c-.003906 1.328125.523437 2.605468 1.460937 3.542968.9375.941407 2.210938 1.46875 3.539063 1.46875zm11.078125-107.390624c9.644531.144531 17.390625 8.007812 17.390625 17.652343 0 9.648438-7.746094 17.511719-17.390625 17.65625h-27.328125v-35.320312zm-27.328125 45.296874h30.171875c9.746094.011719 17.644531 7.910157 17.65625 17.65625v2.039063c-.011719 9.746094-7.910156 17.644531-17.65625 17.65625h-30.171875zm0 0"/></svg>