<?xml version="1.0" encoding="iso-8859-1"?>
<!-- Generator: Adobe Illustrator 19.0.0, SVG Export Plug-In . SVG Version: 6.00 Build 0)  -->
<svg version="1.1" id="Capa_1" xmlns="http://www.w3.org/2000/svg" xmlns:xlink="http://www.w3.org/1999/xlink" x="0px" y="0px"
	 viewBox="0 0 512.003 512.003" style="enable-background:new 0 0 512.003 512.003;" xml:space="preserve">
<g>
	<g>
		<path d="M249.985,189.237c-3.062-2.786-7.806-2.565-10.595,0.498c-6.091,6.692-14.774,10.53-23.822,10.53
			s-17.73-3.838-23.822-10.53c-2.788-3.063-7.532-3.285-10.595-0.498c-3.064,2.79-3.286,7.533-0.498,10.596
			c8.927,9.808,21.653,15.433,34.915,15.433s25.988-5.625,34.915-15.433C253.271,196.77,253.048,192.026,249.985,189.237z"/>
	</g>
</g>
<g>
	<g>
		<path d="M256.961,134.108c-4.142,0-7.5,3.357-7.5,7.5v3.626c0,4.142,3.358,7.5,7.5,7.5s7.5-3.357,7.5-7.5v-3.626
			C264.462,137.465,261.103,134.108,256.961,134.108z"/>
	</g>
</g>
<g>
	<g>
		<path d="M174.174,134.108c-4.142,0-7.5,3.357-7.5,7.5v3.626c0,4.142,3.358,7.5,7.5,7.5s7.5-3.357,7.5-7.5v-3.626
			C181.674,137.465,178.316,134.108,174.174,134.108z"/>
	</g>
</g>
<g>
	<g>
		<path d="M415.944,405.226c-4.142,0-7.5,3.357-7.5,7.5V504.5c0,4.143,3.358,7.5,7.5,7.5s7.5-3.357,7.5-7.5v-91.774
			C423.444,408.583,420.086,405.226,415.944,405.226z"/>
	</g>
</g>
<g>
	<g>
		<path d="M417.831,318.497c-8.651-21.083-26.387-36.823-47.638-43.323v-21.656c17.312-4.111,30.03-19.638,30.03-38.059V106.237
			c0-21.054-10.758-40.153-28.779-51.092c-3.54-2.149-8.153-1.021-10.303,2.52c-2.149,3.541-1.021,8.153,2.52,10.303
			c13.501,8.196,21.562,22.502,21.562,38.27v109.221c0,12.868-10.062,23.454-22.958,24.102c-0.389,0.022-0.786,0.028-1.182,0.028
			h-21.96c-10.967,0-19.89-8.918-19.89-19.88v-35.031c7.056-0.205,13.651-3.049,18.636-8.048c5.207-5.191,8.074-12.106,8.074-19.471
			c0-15.361-12.472-27.53-27.53-27.53h-23.204v-21.611h2c26.873,0,48.736-21.863,48.736-48.736V17.802
			c0-5.067-2.17-9.909-5.955-13.284c-3.785-3.375-8.838-4.978-13.885-4.403l-161.287,18.58c-4.115,0.475-7.066,4.194-6.592,8.31
			c0.474,4.116,4.198,7.064,8.309,6.593l161.283-18.58c1.083-0.128,1.837,0.382,2.188,0.695c0.351,0.312,0.938,1,0.938,2.09V59.28
			c0,18.603-15.134,33.736-33.736,33.736h-9.5H138.307c-8.4,0-15.235,6.835-15.235,15.235v4.942
			c0,11.346-9.239,20.913-20.913,20.913h-2.761V60.911c0-11.16,8.358-20.541,19.439-21.82l18.034-2.077
			c4.115-0.475,7.067-4.194,6.593-8.31c-0.474-4.114-4.198-7.06-8.309-6.593l-18.037,2.078c-18.654,2.154-32.72,17.941-32.72,36.722
			v76.986c-4.892,4.064-7.855,10.15-7.855,16.702v9.186c0,11.972,9.746,21.712,21.725,21.712h8.632
			c1.498,22.879,11.201,43.554,26.183,59.112v29.47c-15.016,3.71-28.633,12.034-38.849,23.865
			c-11.763,13.623-18.241,31.048-18.241,49.064v157.491c0,4.143,3.358,7.5,7.5,7.5s7.5-3.357,7.5-7.5V347.01
			c0-14.419,5.183-28.361,14.594-39.261c7.533-8.725,17.37-15.065,28.258-18.331c1.472,7.928,5.033,15.179,10.135,21.11h-3.179
			c-23.86,0-43.271,19.411-43.271,43.271c0,23.859,19.411,43.271,43.271,43.271h59.737c4.142,0,7.5-3.357,7.5-7.5v-6.588h48.875
			v16.698c0,4.143,3.358,7.5,7.5,7.5h7.227v7.599c0,2.789-2.269,5.059-5.058,5.059h-24.62v-15.267c0-4.143-3.358-7.5-7.5-7.5
			s-7.5,3.357-7.5,7.5v15.267h-18.679c-5.507-6.422-13.516-10.149-22.152-10.149h-29.537c-19.852,0-36.002,16.15-36.002,36.002
			v6.661c0,19.852,16.15,36.002,36.002,36.002h29.537c8.635,0,16.645-3.729,22.152-10.149h18.679v26.297c0,4.143,3.358,7.5,7.5,7.5
			s7.5-3.357,7.5-7.5v-26.297h56.372c17.463,0,31.671-14.207,31.671-31.671v-39.353h7.227c4.142,0,7.5-3.357,7.5-7.5v-12.025
			c3.066,2.987,7.251,4.831,11.859,4.831h46.786c17.994,0,32.632-14.639,32.632-32.633v-12.108
			C436.01,334.937,428.592,323.837,417.831,318.497z M399.279,315.111h-42.687c-6.224,0-11.675,3.364-14.638,8.367
			c-6.302-16.886-22.565-28.509-41.131-28.509c-18.978,0-35.548,12.147-41.533,29.646H246.29
			c3.802-9.439,9.992-17.881,17.984-24.354c7.35-5.953,15.754-9.991,24.765-11.967c0.159-0.029,0.315-0.064,0.471-0.103
			c4.083-0.861,8.286-1.302,12.573-1.302h46.23C369.256,286.888,388.439,297.847,399.279,315.111z M325.98,324.615h-50.313
			c5.013-8.839,14.507-14.646,25.156-14.646C311.472,309.969,320.967,315.775,325.98,324.615z M223.072,276.414v-5.483
			c11.767-2.816,22.848-7.879,32.723-14.974c7.333,4.71,15.72,7.653,24.407,8.561v10.64c-9.195,2.8-17.838,7.346-25.37,13.446
			c-1.774,1.437-3.47,2.958-5.098,4.543C242.121,285.724,233.078,280.043,223.072,276.414z M295.21,179.279v-34.65h23.203v-0.001
			c11.2,0,16.688,13.579,8.849,21.395c-2.357,2.364-5.5,3.666-8.849,3.666c-7.819,0-14.18,6.361-14.18,14.18v35.84
			c0,19.232,15.652,34.88,34.89,34.88h16.07v17.629c-2.273-0.21-4.567-0.33-6.88-0.33h-46.23c-2.303,0-4.598,0.115-6.88,0.327
			v-14.896c0-4.143-3.358-7.5-7.5-7.5h-1.73c-6.393,0-12.516-1.438-18.074-4.198C285.512,227.868,295.21,204.327,295.21,179.279z
			 M121.694,179.279v-1.281c0.002-4.143-3.356-7.501-7.498-7.501H98.267c-3.708,0-6.725-3.011-6.725-6.712v-9.186
			c0-2.209,1.087-4.25,2.853-5.492h7.763c19.804,0,35.913-16.135,35.913-35.913v-4.942c0-0.137,0.099-0.235,0.235-0.235h141.903
			v71.262c0,21.179-8.241,41.077-23.209,56.033c-1.947,1.948-3.981,3.776-6.087,5.493c-0.011,0.009-0.022,0.017-0.033,0.026
			c-14.073,11.462-31.513,17.699-49.922,17.699C157.251,258.53,121.694,222.978,121.694,179.279z M193.038,332.115v43.366v6.588
			h-52.237c-15.589,0-28.271-12.682-28.271-28.271c0-15.589,12.682-28.271,28.271-28.271h30.334c0.028,0,0.057,0.004,0.086,0.004
			c0.03,0,0.059-0.003,0.088-0.004h13.527c0.03,0,0.059,0.004,0.088,0.004c0.028,0,0.057-0.004,0.086-0.004h8.028V332.115z
			 M184.184,310.526h-12.225c-13.871-2.863-23.877-15.105-23.877-29.357v-23.904c15.088,10.261,33.294,16.265,52.876,16.265
			c2.386,0,4.758-0.089,7.113-0.263v7.902C208.071,295.419,198.062,307.661,184.184,310.526z M207.491,315.225
			c6.949-6.009,11.981-14.084,14.243-23.182c6.834,3.02,13.02,7.288,18.307,12.634c-4.181,6.124-7.452,12.851-9.67,19.939h-22.333
			v-0.001v-6.588C208.038,317.035,207.841,316.091,207.491,315.225z M298.335,463.203H234.52c-0.02,0-0.038-0.003-0.058-0.003
			s-0.038,0.003-0.058,0.003H204.52c-2.577,0-4.973,1.322-6.346,3.503c-2.622,4.162-7.124,6.646-12.043,6.646h-29.537
			c-11.581,0-21.002-9.422-21.002-21.002v-6.661c0-11.58,9.421-21.002,21.002-21.002h29.537c4.919,0,9.421,2.484,12.042,6.646
			c1.374,2.181,3.77,3.503,6.346,3.503h29.884c0.02,0,0.038,0.003,0.058,0.003s0.038-0.003,0.058-0.003h32.061
			c11.06,0,20.058-8.998,20.058-20.059v-7.597h28.366v39.352h0.001C315.006,455.724,307.527,463.203,298.335,463.203z
			 M329.733,392.179h-57.82v-9.198h57.82V392.179z M421.011,359.852L421.011,359.852c-0.001,9.723-7.911,17.633-17.633,17.633
			h-46.786c-1.105,0-2.004-0.899-2.004-2.004c0-4.143-3.358-7.5-7.5-7.5h-9.836c-0.007,0-0.013-0.001-0.019-0.001
			c-0.006,0-0.013,0.001-0.019,0.001h-72.781c-0.007,0-0.013-0.001-0.019-0.001c-0.006,0-0.013,0.001-0.019,0.001h-56.355v-28.366
			h27.957c0.041,0.001,0.083,0.007,0.124,0.007c0.027,0,0.053-0.007,0.08-0.007h28.847c0.065,0,0.131,0.002,0.196,0h71.219
			c0.045,0.001,0.088,0.006,0.133,0.006c0.042,0,0.085-0.005,0.127-0.006h10.366c4.142,0,7.5-3.357,7.5-7.5
			c0-1.104,0.899-2.004,2.004-2.004h46.786c9.723,0,17.632,7.91,17.632,17.633V359.852z"/>
	</g>
</g>
<g>
</g>
<g>
</g>
<g>
</g>
<g>
</g>
<g>
</g>
<g>
</g>
<g>
</g>
<g>
</g>
<g>
</g>
<g>
</g>
<g>
</g>
<g>
</g>
<g>
</g>
<g>
</g>
<g>
</g>
</svg>
