<?xml version="1.0" encoding="iso-8859-1"?>
<!-- Generator: Adobe Illustrator 21.0.0, SVG Export Plug-In . SVG Version: 6.00 Build 0)  -->
<svg xmlns="http://www.w3.org/2000/svg" xmlns:xlink="http://www.w3.org/1999/xlink" version="1.1" id="Capa_1" x="0px" y="0px" viewBox="0 0 510.146 510.146" style="enable-background:new 0 0 510.146 510.146;" xml:space="preserve" width="512" height="512">
<g>
	<path d="M167.335,187.435h57.659h34.745l-46.823,46.823c-2.929,2.929-2.929,7.678,0,10.606c1.465,1.464,3.385,2.197,5.304,2.197   s3.839-0.732,5.304-2.197l57.43-57.43h31.721c4.143,0,7.5-3.358,7.5-7.5s-3.357-7.5-7.5-7.5h-16.72l28.876-28.876h49.412v28.876   h-26.641c-4.142,0-7.5,3.358-7.5,7.5s3.358,7.5,7.5,7.5h34.141h61.904c4.142,0,7.5-3.358,7.5-7.5v-43.876   c0-4.142-3.358-7.5-7.5-7.5h-61.904H339.83l72.601-72.601c2.929-2.929,2.929-7.678,0-10.606c-2.929-2.928-7.677-2.929-10.607,0   l-83.207,83.207h-93.622h-57.659c-4.143,0-7.5,3.358-7.5,7.5v43.876C159.835,184.077,163.192,187.435,167.335,187.435z    M436.147,143.558v28.876h-46.904v-28.876H436.147z M274.74,172.435h-42.245v-28.876h71.122L274.74,172.435z M174.835,143.558   h42.659v28.876h-42.659V143.558z"/>
	<path d="M472.766,234.066c-7.603-7.603-17.713-11.791-28.466-11.791c-0.001,0-0.001,0-0.001,0   c-10.754,0-20.863,4.188-28.467,11.791l-44.141,44.14c-7.37-8.117-18.001-13.221-29.802-13.221h-14.191c-4.142,0-7.5,3.358-7.5,7.5   s3.358,7.5,7.5,7.5h14.191c13.927,0,25.258,11.331,25.258,25.258c0,13.927-11.331,25.258-25.258,25.258h-63.227   c-4.143,0-7.5,3.358-7.5,7.5s3.357,7.5,7.5,7.5h63.227c22.198,0,40.258-18.06,40.258-40.258c0-4.864-0.868-9.529-2.455-13.849   c0.086-0.078,0.176-0.151,0.259-0.234l46.489-46.488c4.77-4.77,11.113-7.397,17.859-7.397c6.747,0,13.09,2.627,17.859,7.397   c9.848,9.849,9.848,25.872,0,35.72l-93.2,93.2h-60.296c-4.143,0-7.5,3.358-7.5,7.5s3.357,7.5,7.5,7.5h63.402   c1.989,0,3.896-0.79,5.304-2.197l95.397-95.397C488.461,275.304,488.461,249.764,472.766,234.066z"/>
	<path d="M278.662,373.593h-24.314c-1.973,0-3.866,0.777-5.27,2.164l-23.582,23.292l-57.629-57.629   c-1.104-4.11-1.662-8.357-1.662-12.648c0-26.834,21.831-48.665,48.666-48.665c0.444,0,0.877-0.046,1.3-0.12h81.526   c4.143,0,7.5-3.358,7.5-7.5s-3.357-7.5-7.5-7.5c0,0-91.115,0.295-92.129,0.807c-30.064,4.422-53.345,29.933-54.312,60.975   l-6.062-6.062c-1.407-1.407-3.314-2.197-5.304-2.197s-3.896,0.79-5.304,2.197L94.85,360.444c-0.257,0.257-0.483,0.533-0.696,0.815   l-66.52,74.418c-1.226,1.371-1.904,3.145-1.908,4.984l-0.117,61.626c-0.008,4.14,3.34,7.502,7.48,7.514l123.595,0.344   c0.007,0,0.014,0,0.021,0c1.989,0,3.896-0.79,5.304-2.197l40.175-40.174l0,0l0.303-0.303l0.155-0.155l0,0l39.279-39.28   c2.929-2.929,2.929-7.678,0-10.607l-6.802-6.802l22.311-22.036h21.234c4.143,0,7.5-3.358,7.5-7.5S282.805,373.593,278.662,373.593z    M153.605,495.137l-112.982-0.315l0.097-51.277l59.765-66.86l85.787,85.787L153.605,495.137z M197.336,451.407l-86.118-86.118   l28.673-28.673l86.118,86.118L197.336,451.407z"/>
	<path d="M168.438,86.49c0,4.142,3.357,7.5,7.5,7.5c4.143,0,7.5-3.358,7.5-7.5c0-3.389,0.572-4.781,1.438-6.889   c1.142-2.779,2.563-6.238,2.563-12.588c0-6.35-1.421-9.81-2.563-12.589c-0.865-2.108-1.438-3.501-1.438-6.891   c0-3.39,0.572-4.782,1.438-6.891c1.142-2.78,2.563-6.239,2.563-12.589c0-4.142-3.357-7.5-7.5-7.5c-4.143,0-7.5,3.358-7.5,7.5   c0,3.39-0.572,4.782-1.438,6.891c-1.142,2.779-2.563,6.239-2.563,12.589s1.421,9.81,2.563,12.589   c0.865,2.108,1.438,3.501,1.438,6.891c0,3.389-0.572,4.781-1.438,6.889C169.859,76.682,168.438,80.141,168.438,86.49z"/>
	<path d="M199.438,86.49c0,4.142,3.357,7.5,7.5,7.5c4.143,0,7.5-3.358,7.5-7.5c0-5.467,0.739-7.901,1.676-10.983   c1.09-3.585,2.324-7.648,2.324-15.345c0-7.697-1.234-11.761-2.324-15.346c-0.937-3.082-1.676-5.517-1.676-10.985   c0-5.469,0.739-7.903,1.676-10.986c1.09-3.585,2.324-7.649,2.324-15.346c0-4.142-3.357-7.5-7.5-7.5c-4.143,0-7.5,3.358-7.5,7.5   c0,5.469-0.739,7.903-1.676,10.985c-1.09,3.585-2.324,7.649-2.324,15.346c0,7.697,1.234,11.761,2.324,15.346   c0.936,3.083,1.676,5.517,1.676,10.985c0,5.468-0.739,7.902-1.676,10.983C200.673,74.731,199.438,78.794,199.438,86.49z"/>
</g>















</svg>
