<svg height="480pt" viewBox="0 -48 480 480" width="480pt" xmlns="http://www.w3.org/2000/svg"><path d="m0 384h480v-384h-480zm464-16h-448v-32h448zm-448-352h448v304h-448zm0 0"/><path d="m336 32h-304v208h304zm-16 128h-208v-48h208zm0-64h-208v-48h208zm-272-48h48v48h-48zm0 64h48v48h-48zm0 64h48v48h-48zm272 48h-208v-48h208zm0 0"/><path d="m64 128h16v16h-16zm0 0"/><path d="m64 192h16v16h-16zm0 0"/><path d="m128 128h144v16h-144zm0 0"/><path d="m128 64h48v16h-48zm0 0"/><path d="m192 64h16v16h-16zm0 0"/><path d="m64 64h16v16h-16zm0 0"/><path d="m128 192h32v16h-32zm0 0"/><path d="m176 192h16v16h-16zm0 0"/><path d="m208 192h48v16h-48zm0 0"/><path d="m400 112c22.089844 0 40-17.910156 40-40s-17.910156-40-40-40-40 17.910156-40 40c.027344 22.082031 17.917969 39.972656 40 40zm0-64c13.253906 0 24 10.746094 24 24s-10.746094 24-24 24-24-10.746094-24-24 10.746094-24 24-24zm0 0"/><path d="m400 240h-32v16h-32v48h112v-80h-48zm-32 48h-16v-16h16zm32 0h-16v-32h16zm32-48v48h-16v-48zm0 0"/><path d="m48 264h-16v40h32v-16h-16zm0 0"/><path d="m384 128h32v16h-32zm0 0"/><path d="m432 128h16v16h-16zm0 0"/><path d="m352 128h16v16h-16zm0 0"/><path d="m80 288h16v16h-16zm0 0"/><path d="m112 288h64v16h-64zm0 0"/><path d="m208 288h16v16h-16zm0 0"/></svg>